<svg xmlns="http://www.w3.org/2000/svg" viewBox="0 0 100 100">
  <defs>
    <linearGradient id="tile" x1="0" y1="0" x2="1" y2="1">
      <stop offset="0" stop-color="#F46CBD"/>
      <stop offset="1" stop-color="#F050AE"/>
    </linearGradient>
    <clipPath id="clip"><rect x="4" y="2" width="92" height="88" rx="28"/></clipPath>
  </defs>
  <rect x="4" y="8" width="92" height="88" rx="28" fill="#C93A90"/>
  <rect x="4" y="2" width="92" height="88" rx="28" fill="url(#tile)"/>
  <ellipse cx="26" cy="10" rx="36" ry="20" fill="#fff" fill-opacity=".25" transform="rotate(-24 26 10)" clip-path="url(#clip)"/>
  <g font-family="'Fredoka','Arial Rounded MT Bold','Arial Black',sans-serif" font-weight="800" font-size="66" text-anchor="middle">
    <text x="50" y="76" fill="#A02C78">?</text>
    <text x="50" y="72" fill="#fff">?</text>
  </g>
  <g transform="rotate(12 78 22)">
    <rect x="66" y="12" width="24" height="24" rx="8" fill="#C93A90"/>
    <rect x="66" y="10" width="24" height="24" rx="8" fill="#F78BCB"/>
    <polygon points="78,15 79.8,19.6 84.7,19.8 80.9,22.9 82.1,27.7 78,25 73.9,27.7 75.1,22.9 71.3,19.8 76.2,19.6" fill="#fff" stroke="#fff" stroke-width="1.2" stroke-linejoin="round"/>
  </g>
</svg>
